<?xml version="1.0" encoding="utf-8"?>
<!-- Generator: Adobe Illustrator 26.0.3, SVG Export Plug-In . SVG Version: 6.00 Build 0)  -->
<svg version="1.1" id="livetype" xmlns="http://www.w3.org/2000/svg" xmlns:xlink="http://www.w3.org/1999/xlink" x="0px" y="0px"
	 viewBox="0 0 118.1 38.2" style="enable-background:new 0 0 118.1 38.2;" xml:space="preserve">
<style type="text/css">
	.st0{fill:#FFFFFF;}
</style>
<g>
	<g>
		<g>
			<path d="M7.6,38.2c-0.3,0-0.6,0-0.9,0c-0.6,0-1.3-0.1-1.9-0.2c-0.6-0.1-1.1-0.3-1.7-0.5c-0.5-0.3-1-0.6-1.4-1s-0.8-0.9-1-1.4
				c-0.3-0.5-0.4-1.1-0.5-1.7C0.1,32.8,0,32.2,0,31.5c0-0.2,0-0.9,0-0.9V7.5c0,0,0-0.7,0-0.9C0,6,0.1,5.3,0.2,4.7
				c0.1-0.5,0.3-1.1,0.6-1.6s0.6-1,1-1.4s0.9-0.7,1.4-1s1.1-0.4,1.7-0.5S6.1,0,6.8,0h0.9h102.8h0.9c0.6,0,1.2,0.1,1.9,0.2
				c0.6,0.1,1.1,0.3,1.7,0.5c1,0.5,1.9,1.4,2.4,2.4c0.3,0.5,0.4,1.1,0.5,1.6c0.1,0.6,0.2,1.3,0.2,1.9c0,0.3,0,0.6,0,0.9
				c0,0.4,0,0.7,0,1.1v20.9c0,0.4,0,0.7,0,1.1c0,0.3,0,0.6,0,0.9c0,0.6-0.1,1.2-0.2,1.9c-0.1,0.6-0.3,1.1-0.5,1.7
				c-0.3,0.5-0.6,1-1,1.4s-0.9,0.8-1.4,1c-0.5,0.3-1.1,0.5-1.7,0.5c-0.6,0.1-1.2,0.2-1.9,0.2c-0.3,0-0.6,0-0.9,0h-1.1L7.6,38.2z"/>
		</g>
		<g id="_Group_">
			<g id="_Group_2">
				<g id="_Group_3">
					<path id="_Path_" class="st0" d="M24,19.4c0-1.7,0.9-3.3,2.4-4.2c-0.9-1.3-2.4-2.1-4-2.2c-1.7-0.2-3.3,1-4.2,1s-2.2-1-3.6-1
						c-1.9,0.1-3.6,1.1-4.5,2.7c-1.9,3.3-0.5,8.3,1.4,11c0.9,1.3,2,2.8,3.4,2.8c1.4-0.1,1.9-0.9,3.6-0.9s2.1,0.9,3.6,0.9
						s2.4-1.3,3.3-2.7c0.7-0.9,1.2-2,1.5-3.1C25.1,23.1,24,21.3,24,19.4z"/>
					<path id="_Path_2" class="st0" d="M21.2,11.3c0.8-1,1.2-2.2,1.1-3.5c-1.2,0.1-2.4,0.7-3.2,1.7c-0.8,0.9-1.2,2.1-1.1,3.4
						C19.3,12.9,20.4,12.3,21.2,11.3z"/>
				</g>
			</g>
			<g>
				<path class="st0" d="M41.5,26.2h-4.7l-1.1,3.4h-2l4.5-12.4h2l4.5,12.4h-2L41.5,26.2z M37.3,24.7h3.8l-1.9-5.5h-0.1L37.3,24.7z"
					/>
				<path class="st0" d="M54.4,25.1c0,2.8-1.5,4.6-3.8,4.6c-1.2,0.1-2.3-0.6-2.8-1.6l0,0v4.5h-1.9v-12h1.8v1.5l0,0
					c0.6-1,1.7-1.6,2.9-1.6C52.8,20.4,54.4,22.3,54.4,25.1z M52.4,25.1c0-1.8-0.9-3-2.4-3c-1.4,0-2.4,1.2-2.4,3s1,3,2.4,3
					C51.5,28.1,52.4,26.9,52.4,25.1z"/>
				<path class="st0" d="M64.3,25.1c0,2.8-1.5,4.6-3.8,4.6c-1.2,0.1-2.3-0.6-2.8-1.6l0,0v4.5h-1.9v-12h1.8v1.5l0,0
					c0.6-1,1.7-1.6,2.9-1.6C62.8,20.4,64.3,22.3,64.3,25.1z M62.4,25.1c0-1.8-0.9-3-2.4-3c-1.4,0-2.4,1.2-2.4,3s1,3,2.4,3
					C61.5,28.1,62.4,26.9,62.4,25.1L62.4,25.1z"/>
				<path class="st0" d="M70.9,26.1c0.1,1.2,1.3,2,3,2c1.6,0,2.7-0.8,2.7-1.9c0-1-0.7-1.5-2.3-1.9l-1.6-0.4
					c-2.3-0.6-3.3-1.6-3.3-3.3c0-2.1,1.9-3.6,4.5-3.6s4.4,1.5,4.5,3.6h-1.9c-0.1-1.2-1.1-2-2.6-2s-2.5,0.8-2.5,1.9
					c0,0.9,0.7,1.4,2.3,1.8l1.4,0.3c2.5,0.6,3.6,1.6,3.6,3.4c0,2.3-1.9,3.8-4.8,3.8c-2.8,0-4.6-1.4-4.7-3.7L70.9,26.1z"/>
				<path class="st0" d="M82.5,18.4v2.1h1.7V22h-1.7v5c0,0.8,0.3,1.1,1.1,1.1c0.2,0,0.4,0,0.6,0v1.5c-0.3,0.1-0.7,0.1-1,0.1
					c-1.8,0-2.5-0.7-2.5-2.4v-5.2h-1.3v-1.5h1.3v-2.1h1.8V18.4z"/>
				<path class="st0" d="M85.3,25.1c0-2.8,1.7-4.6,4.3-4.6c2.6,0,4.3,1.8,4.3,4.6c0,2.9-1.7,4.6-4.3,4.6
					C86.9,29.7,85.3,27.9,85.3,25.1z M92,25.1c0-2-0.9-3.1-2.4-3.1s-2.4,1.1-2.4,3.1s0.9,3.1,2.4,3.1S92,27,92,25.1L92,25.1z"/>
				<path class="st0" d="M95.4,20.5h1.8v1.6l0,0c0.2-1,1.2-1.7,2.2-1.6c0.2,0,0.4,0,0.6,0.1v1.7c-0.3-0.1-0.6-0.1-0.8-0.1
					c-1,0-1.9,0.8-1.9,1.8c0,0.1,0,0.2,0,0.3v5.4h-1.9L95.4,20.5z"/>
				<path class="st0" d="M108.6,26.9c-0.2,1.6-1.9,2.8-3.9,2.8c-2.6,0-4.3-1.8-4.3-4.6s1.6-4.7,4.2-4.7c2.5,0,4.1,1.7,4.1,4.5v0.6
					h-6.4v0.1c-0.1,1.3,0.8,2.4,2.1,2.6c0.1,0,0.2,0,0.3,0c0.9,0.1,1.8-0.4,2.1-1.3L108.6,26.9z M102.3,24.2h4.5
					c0.1-1.2-0.9-2.2-2.1-2.3c-0.1,0-0.1,0-0.2,0C103.3,21.9,102.3,22.9,102.3,24.2L102.3,24.2z"/>
			</g>
		</g>
	</g>
	<g id="_Group_4">
		<g>
			<path class="st0" d="M37,7.8c1.5-0.1,2.7,1,2.8,2.4c0,0.2,0,0.3,0,0.5c0,1.9-1,3-2.8,3h-2.2v-6L37,7.8L37,7.8z M35.8,13h1.1
				c1,0.1,1.9-0.7,2-1.8c0-0.1,0-0.3,0-0.4c0.1-1-0.6-2-1.6-2.1c-0.1,0-0.2,0-0.4,0h-1.1V13z"/>
			<path class="st0" d="M40.9,11.5c-0.1-1.2,0.7-2.2,1.9-2.3s2.2,0.7,2.3,1.9c0,0.1,0,0.3,0,0.4c0.1,1.2-0.7,2.2-1.9,2.3
				s-2.2-0.7-2.3-1.9C40.9,11.8,40.9,11.7,40.9,11.5z M44.2,11.5c0-1-0.4-1.5-1.2-1.5s-1.2,0.6-1.2,1.5c0,1,0.4,1.6,1.2,1.6
				S44.2,12.5,44.2,11.5L44.2,11.5z"/>
			<path class="st0" d="M50.8,13.8h-0.9L49,10.5h-0.1L48,13.8h-0.9l-1.2-4.5h0.9l0.8,3.4h0.1l0.9-3.4h0.9l0.9,3.4h0.1l0.8-3.4h0.9
				L50.8,13.8z"/>
			<path class="st0" d="M53.1,9.3H54V10h0.1c0.2-0.5,0.8-0.8,1.3-0.8c0.8-0.1,1.5,0.5,1.6,1.4c0,0.1,0,0.2,0,0.3v2.9h-0.9v-2.7
				c0-0.7-0.3-1.1-1-1.1c-0.6,0-1.1,0.4-1.1,1c0,0.1,0,0.1,0,0.2v2.6h-0.9L53.1,9.3z"/>
			<path class="st0" d="M58.3,7.5h0.9v6.3h-0.9V7.5z"/>
			<path class="st0" d="M60.4,11.5c-0.1-1.2,0.7-2.2,1.9-2.3s2.2,0.7,2.3,1.9c0,0.1,0,0.3,0,0.4c0.1,1.2-0.7,2.2-1.9,2.3
				s-2.2-0.7-2.3-1.9C60.4,11.8,60.4,11.7,60.4,11.5z M63.8,11.5c0-1-0.4-1.5-1.2-1.5s-1.2,0.6-1.2,1.5c0,1,0.4,1.6,1.2,1.6
				C63.3,13.1,63.8,12.5,63.8,11.5z"/>
			<path class="st0" d="M65.6,12.5c0-0.8,0.6-1.3,1.7-1.3l1.2-0.1v-0.4c0-0.5-0.3-0.7-0.9-0.7c-0.5,0-0.8,0.2-0.9,0.5h-0.9
				c0.1-0.8,0.8-1.3,1.8-1.3c1.1,0,1.8,0.6,1.8,1.5v3.1h-0.9v-0.6h-0.1c-0.3,0.5-0.8,0.7-1.4,0.7c-0.7,0.1-1.4-0.5-1.5-1.2
				C65.6,12.6,65.6,12.6,65.6,12.5z M68.5,12.1v-0.4l-1.1,0.1c-0.6,0-0.9,0.3-0.9,0.6c0,0.4,0.4,0.6,0.8,0.6
				C67.9,13.2,68.4,12.8,68.5,12.1C68.5,12.2,68.5,12.2,68.5,12.1z"/>
			<path class="st0" d="M70.5,11.5c0-1.4,0.7-2.3,1.9-2.3c0.6,0,1.1,0.3,1.4,0.8h0.1V7.5h0.9v6.3h-0.9v-0.7h-0.1
				c-0.3,0.5-0.8,0.8-1.4,0.8C71.3,13.9,70.5,13,70.5,11.5z M71.5,11.5c0,1,0.5,1.5,1.2,1.5s1.2-0.6,1.2-1.5S73.4,10,72.7,10
				C71.9,10,71.5,10.6,71.5,11.5L71.5,11.5z"/>
			<path class="st0" d="M78.4,11.5c-0.1-1.2,0.7-2.2,1.9-2.3s2.2,0.7,2.3,1.9c0,0.1,0,0.3,0,0.4c0.1,1.2-0.7,2.2-1.9,2.3
				c-1.2,0.1-2.2-0.7-2.3-1.9C78.4,11.8,78.4,11.7,78.4,11.5z M81.8,11.5c0-1-0.4-1.5-1.2-1.5c-0.8,0-1.2,0.6-1.2,1.5
				c0,1,0.4,1.6,1.2,1.6C81.3,13.1,81.8,12.5,81.8,11.5z"/>
			<path class="st0" d="M83.9,9.3h0.9V10h0.1c0.2-0.5,0.8-0.8,1.3-0.8c0.8-0.1,1.5,0.5,1.6,1.4c0,0.1,0,0.2,0,0.3v2.9h-0.9v-2.7
				c0-0.7-0.3-1.1-1-1.1c-0.6,0-1.1,0.4-1.1,1c0,0.1,0,0.1,0,0.2v2.6h-0.9V9.3z"/>
			<path class="st0" d="M92.7,8.2v1.1h1v0.8h-1v2.3c0,0.5,0.2,0.7,0.6,0.7c0.1,0,0.2,0,0.3,0v0.7c-0.2,0-0.3,0-0.5,0
				c-1,0-1.4-0.3-1.4-1.2v-2.5H91V9.4h0.7V8.2H92.7z"/>
			<path class="st0" d="M94.9,7.5h0.9V10h0.1c0.2-0.5,0.8-0.9,1.4-0.8c0.8,0,1.5,0.6,1.6,1.4c0,0.1,0,0.2,0,0.3v2.9H98v-2.7
				c0-0.7-0.3-1.1-1-1.1c-0.6,0-1.1,0.4-1.1,1c0,0.1,0,0.1,0,0.2v2.6H95L94.9,7.5z"/>
			<path class="st0" d="M104,12.6c-0.2,0.8-1.1,1.4-2,1.3c-1.1,0-2.1-0.9-2.1-2c0-0.1,0-0.2,0-0.3c-0.2-1.1,0.6-2.2,1.8-2.3
				c0.1,0,0.2,0,0.3,0c1.3,0,2,0.9,2,2.3v0.3h-3.2l0,0c-0.1,0.7,0.4,1.2,1.1,1.3h0.1c0.4,0.1,0.9-0.2,1.1-0.5L104,12.6z M100.8,11.1
				h2.3c0-0.6-0.4-1.1-1-1.2H102C101.4,10,100.8,10.5,100.8,11.1L100.8,11.1L100.8,11.1z"/>
		</g>
	</g>
</g>
</svg>
