<?xml version="1.0" encoding="utf-8"?>
<!-- Generator: Adobe Illustrator 26.0.3, SVG Export Plug-In . SVG Version: 6.00 Build 0)  -->
<svg version="1.1" id="livetype" xmlns="http://www.w3.org/2000/svg" xmlns:xlink="http://www.w3.org/1999/xlink" x="0px" y="0px"
	 viewBox="0 0 118.1 38.2" style="enable-background:new 0 0 118.1 38.2;" xml:space="preserve">
<style type="text/css">
	.st0{fill:#FFFFFF;}
	.st1{display:none;}
	.st2{display:inline;fill-rule:evenodd;clip-rule:evenodd;fill:#FFFFFF;}
	.st3{fill-rule:evenodd;clip-rule:evenodd;fill:#FFFFFF;}
</style>
<g>
	<g>
		<g>
			<path d="M7.6,38.2c-0.3,0-0.6,0-0.9,0c-0.6,0-1.3-0.1-1.9-0.2c-0.6-0.1-1.1-0.3-1.7-0.5c-0.5-0.3-1-0.6-1.4-1s-0.8-0.9-1-1.4
				c-0.3-0.5-0.4-1.1-0.5-1.7C0.1,32.8,0,32.2,0,31.5c0-0.2,0-0.9,0-0.9V7.5c0,0,0-0.7,0-0.9C0,6,0.1,5.3,0.2,4.7
				c0.1-0.5,0.3-1.1,0.6-1.6s0.6-1,1-1.4s0.9-0.7,1.4-1s1.1-0.4,1.7-0.5S6.1,0,6.8,0h0.9h102.8h0.9c0.6,0,1.2,0.1,1.9,0.2
				c0.6,0.1,1.1,0.3,1.7,0.5c1,0.5,1.9,1.4,2.4,2.4c0.3,0.5,0.4,1.1,0.5,1.6c0.1,0.6,0.2,1.3,0.2,1.9c0,0.3,0,0.6,0,0.9
				c0,0.4,0,0.7,0,1.1v20.9c0,0.4,0,0.7,0,1.1c0,0.3,0,0.6,0,0.9c0,0.6-0.1,1.2-0.2,1.9c-0.1,0.6-0.3,1.1-0.5,1.7
				c-0.3,0.5-0.6,1-1,1.4s-0.9,0.8-1.4,1c-0.5,0.3-1.1,0.5-1.7,0.5c-0.6,0.1-1.2,0.2-1.9,0.2c-0.3,0-0.6,0-0.9,0h-1.1L7.6,38.2z"/>
		</g>
		<g id="_Group_">
			<g>
				<path class="st0" d="M70.9,26.1c0.1,1.2,1.3,2,3,2c1.6,0,2.7-0.8,2.7-1.9c0-1-0.7-1.5-2.3-1.9l-1.6-0.4
					c-2.3-0.6-3.3-1.6-3.3-3.3c0-2.1,1.9-3.6,4.5-3.6s4.4,1.5,4.5,3.6h-1.9c-0.1-1.2-1.1-2-2.6-2s-2.5,0.8-2.5,1.9
					c0,0.9,0.7,1.4,2.3,1.8l1.4,0.3c2.5,0.6,3.6,1.6,3.6,3.4c0,2.3-1.9,3.8-4.8,3.8c-2.8,0-4.6-1.4-4.7-3.7L70.9,26.1z"/>
				<path class="st0" d="M82.5,18.4v2.1h1.7V22h-1.7v5c0,0.8,0.3,1.1,1.1,1.1c0.2,0,0.4,0,0.6,0v1.5c-0.3,0.1-0.7,0.1-1,0.1
					c-1.8,0-2.5-0.7-2.5-2.4v-5.2h-1.3v-1.5h1.3v-2.1h1.8V18.4z"/>
				<path class="st0" d="M85.3,25.1c0-2.8,1.7-4.6,4.3-4.6c2.6,0,4.3,1.8,4.3,4.6c0,2.9-1.7,4.6-4.3,4.6
					C86.9,29.7,85.3,27.9,85.3,25.1z M92,25.1c0-2-0.9-3.1-2.4-3.1s-2.4,1.1-2.4,3.1s0.9,3.1,2.4,3.1S92,27,92,25.1L92,25.1z"/>
				<path class="st0" d="M95.4,20.5h1.8v1.6l0,0c0.2-1,1.2-1.7,2.2-1.6c0.2,0,0.4,0,0.6,0.1v1.7c-0.3-0.1-0.6-0.1-0.8-0.1
					c-1,0-1.9,0.8-1.9,1.8c0,0.1,0,0.2,0,0.3v5.4h-1.9L95.4,20.5z"/>
				<path class="st0" d="M108.6,26.9c-0.2,1.6-1.9,2.8-3.9,2.8c-2.6,0-4.3-1.8-4.3-4.6s1.6-4.7,4.2-4.7c2.5,0,4.1,1.7,4.1,4.5v0.6
					h-6.4v0.1c-0.1,1.3,0.8,2.4,2.1,2.6c0.1,0,0.2,0,0.3,0c0.9,0.1,1.8-0.4,2.1-1.3L108.6,26.9z M102.3,24.2h4.5
					c0.1-1.2-0.9-2.2-2.1-2.3c-0.1,0-0.1,0-0.2,0C103.3,21.9,102.3,22.9,102.3,24.2L102.3,24.2z"/>
			</g>
		</g>
	</g>
	<g id="_Group_4">
		<g>
			<path class="st0" d="M37,7.8c1.5-0.1,2.7,1,2.8,2.4c0,0.2,0,0.3,0,0.5c0,1.9-1,3-2.8,3h-2.2v-6L37,7.8L37,7.8z M35.8,13h1.1
				c1,0.1,1.9-0.7,2-1.8c0-0.1,0-0.3,0-0.4c0.1-1-0.6-2-1.6-2.1c-0.1,0-0.2,0-0.4,0h-1.1V13z"/>
			<path class="st0" d="M40.9,11.5c-0.1-1.2,0.7-2.2,1.9-2.3s2.2,0.7,2.3,1.9c0,0.1,0,0.3,0,0.4c0.1,1.2-0.7,2.2-1.9,2.3
				s-2.2-0.7-2.3-1.9C40.9,11.8,40.9,11.7,40.9,11.5z M44.2,11.5c0-1-0.4-1.5-1.2-1.5s-1.2,0.6-1.2,1.5c0,1,0.4,1.6,1.2,1.6
				S44.2,12.5,44.2,11.5L44.2,11.5z"/>
			<path class="st0" d="M50.8,13.8h-0.9L49,10.5h-0.1L48,13.8h-0.9l-1.2-4.5h0.9l0.8,3.4h0.1l0.9-3.4h0.9l0.9,3.4h0.1l0.8-3.4h0.9
				L50.8,13.8z"/>
			<path class="st0" d="M53.1,9.3H54V10h0.1c0.2-0.5,0.8-0.8,1.3-0.8c0.8-0.1,1.5,0.5,1.6,1.4c0,0.1,0,0.2,0,0.3v2.9h-0.9v-2.7
				c0-0.7-0.3-1.1-1-1.1c-0.6,0-1.1,0.4-1.1,1c0,0.1,0,0.1,0,0.2v2.6h-0.9L53.1,9.3z"/>
			<path class="st0" d="M58.3,7.5h0.9v6.3h-0.9V7.5z"/>
			<path class="st0" d="M60.4,11.5c-0.1-1.2,0.7-2.2,1.9-2.3s2.2,0.7,2.3,1.9c0,0.1,0,0.3,0,0.4c0.1,1.2-0.7,2.2-1.9,2.3
				s-2.2-0.7-2.3-1.9C60.4,11.8,60.4,11.7,60.4,11.5z M63.8,11.5c0-1-0.4-1.5-1.2-1.5s-1.2,0.6-1.2,1.5c0,1,0.4,1.6,1.2,1.6
				C63.3,13.1,63.8,12.5,63.8,11.5z"/>
			<path class="st0" d="M65.6,12.5c0-0.8,0.6-1.3,1.7-1.3l1.2-0.1v-0.4c0-0.5-0.3-0.7-0.9-0.7c-0.5,0-0.8,0.2-0.9,0.5h-0.9
				c0.1-0.8,0.8-1.3,1.8-1.3c1.1,0,1.8,0.6,1.8,1.5v3.1h-0.9v-0.6h-0.1c-0.3,0.5-0.8,0.7-1.4,0.7c-0.7,0.1-1.4-0.5-1.5-1.2
				C65.6,12.6,65.6,12.6,65.6,12.5z M68.5,12.1v-0.4l-1.1,0.1c-0.6,0-0.9,0.3-0.9,0.6c0,0.4,0.4,0.6,0.8,0.6
				C67.9,13.2,68.4,12.8,68.5,12.1C68.5,12.2,68.5,12.2,68.5,12.1z"/>
			<path class="st0" d="M70.5,11.5c0-1.4,0.7-2.3,1.9-2.3c0.6,0,1.1,0.3,1.4,0.8h0.1V7.5h0.9v6.3h-0.9v-0.7h-0.1
				c-0.3,0.5-0.8,0.8-1.4,0.8C71.3,13.9,70.5,13,70.5,11.5z M71.5,11.5c0,1,0.5,1.5,1.2,1.5s1.2-0.6,1.2-1.5S73.4,10,72.7,10
				C71.9,10,71.5,10.6,71.5,11.5L71.5,11.5z"/>
			<path class="st0" d="M78.4,11.5c-0.1-1.2,0.7-2.2,1.9-2.3s2.2,0.7,2.3,1.9c0,0.1,0,0.3,0,0.4c0.1,1.2-0.7,2.2-1.9,2.3
				c-1.2,0.1-2.2-0.7-2.3-1.9C78.4,11.8,78.4,11.7,78.4,11.5z M81.8,11.5c0-1-0.4-1.5-1.2-1.5c-0.8,0-1.2,0.6-1.2,1.5
				c0,1,0.4,1.6,1.2,1.6C81.3,13.1,81.8,12.5,81.8,11.5z"/>
			<path class="st0" d="M83.9,9.3h0.9V10h0.1c0.2-0.5,0.8-0.8,1.3-0.8c0.8-0.1,1.5,0.5,1.6,1.4c0,0.1,0,0.2,0,0.3v2.9h-0.9v-2.7
				c0-0.7-0.3-1.1-1-1.1c-0.6,0-1.1,0.4-1.1,1c0,0.1,0,0.1,0,0.2v2.6h-0.9V9.3z"/>
			<path class="st0" d="M92.7,8.2v1.1h1v0.8h-1v2.3c0,0.5,0.2,0.7,0.6,0.7c0.1,0,0.2,0,0.3,0v0.7c-0.2,0-0.3,0-0.5,0
				c-1,0-1.4-0.3-1.4-1.2v-2.5H91V9.4h0.7V8.2H92.7z"/>
			<path class="st0" d="M94.9,7.5h0.9V10h0.1c0.2-0.5,0.8-0.9,1.4-0.8c0.8,0,1.5,0.6,1.6,1.4c0,0.1,0,0.2,0,0.3v2.9H98v-2.7
				c0-0.7-0.3-1.1-1-1.1c-0.6,0-1.1,0.4-1.1,1c0,0.1,0,0.1,0,0.2v2.6H95L94.9,7.5z"/>
			<path class="st0" d="M104,12.6c-0.2,0.8-1.1,1.4-2,1.3c-1.1,0-2.1-0.9-2.1-2c0-0.1,0-0.2,0-0.3c-0.2-1.1,0.6-2.2,1.8-2.3
				c0.1,0,0.2,0,0.3,0c1.3,0,2,0.9,2,2.3v0.3h-3.2l0,0c-0.1,0.7,0.4,1.2,1.1,1.3h0.1c0.4,0.1,0.9-0.2,1.1-0.5L104,12.6z M100.8,11.1
				h2.3c0-0.6-0.4-1.1-1-1.2H102C101.4,10,100.8,10.5,100.8,11.1L100.8,11.1L100.8,11.1z"/>
		</g>
	</g>
</g>
<g>
	<path class="st0" d="M11.5,8.1c0.6,0.1,1.1,0.5,1.6,0.8c4.8,2.8,9.6,5.6,14.4,8.3c1.1,0.6,1.4,1.8,0.9,2.8
		c-0.2,0.4-0.5,0.6-0.8,0.8c-5.1,2.9-10.2,5.9-15.3,8.8c-1.4,0.8-3.1-0.1-3.1-1.8c0-5.9,0-11.7,0-17.6c0-1.1,0.6-1.8,1.7-2.1
		c0,0,0.1,0,0.1,0C11.1,8.1,11.3,8.1,11.5,8.1z M19.2,18.9c-2.9-3-5.8-6-8.7-9.1c0,6.1,0,12.1,0,18.2C13.4,25,16.3,22,19.2,18.9z
		 M12.2,28.1C12.2,28.1,12.2,28.1,12.2,28.1c3.4-1.9,6.8-3.9,10.2-5.9c-0.8-0.8-1.5-1.6-2.3-2.4C17.4,22.6,14.8,25.4,12.2,28.1z
		 M23.5,16.4c-0.8,0.9-1.6,1.7-2.5,2.6c0.9,0.9,1.7,1.8,2.6,2.7c1.1-0.6,2.2-1.3,3.3-1.9c0.6-0.4,0.6-1,0-1.4
		c-0.8-0.4-1.5-0.9-2.3-1.3C24.2,16.8,23.8,16.6,23.5,16.4z M22.3,15.7c-3.3-1.9-6.5-3.8-9.8-5.6c0,0,0,0,0,0
		c2.5,2.6,5.1,5.3,7.6,7.9C20.8,17.2,21.6,16.5,22.3,15.7z"/>
</g>
<g class="st1">
	<path class="st2" d="M63.8,32c-0.5-0.4-0.8-1-1-1.4l1.5-0.7c0.1,0.2,0.3,0.5,0.5,0.7c0.4,0.4,0.9,0.7,1.5,0.7s1.2-0.3,1.6-0.7
		c0.3-0.5,0.5-0.9,0.5-1.6v-0.6c-1.1,1.4-3.4,1.2-4.7-0.3c-1.4-1.5-1.4-4,0-5.5c1.4-1.4,3.4-1.6,4.7-0.3l0,0v-0.7h1.6v7
		c0,1.8-0.7,2.8-1.5,3.4c-0.6,0.5-1.4,0.7-2.1,0.7C65.3,32.9,64.5,32.6,63.8,32L63.8,32z M102.8,32.4L102.8,32.4l1.6-3.7l-2.8-6.4
		h1.6l2,4.6l2-4.6h1.6l-4.3,10.1L102.8,32.4L102.8,32.4z M95.3,28.9L95.3,28.9c-0.5-0.5-0.7-1.1-0.7-1.8c0-0.6,0.2-1.1,0.6-1.5
		c0.7-0.7,1.6-0.9,2.6-0.9c0.7,0,1.2,0.1,1.7,0.4c0-1.1-0.9-1.6-1.7-1.6c-0.7,0-1.3,0.4-1.6,1l-1.4-0.6c0.3-0.7,1-1.9,2.9-1.9
		c0.9,0,1.9,0.3,2.4,0.9c0.6,0.7,0.7,1.4,0.7,2.4v3.9h-1.6v-0.7c-0.2,0.3-0.6,0.5-0.8,0.7c-0.4,0.2-0.8,0.3-1.3,0.3
		C96.6,29.5,95.8,29.3,95.3,28.9L95.3,28.9z M45.7,25.5L45.7,25.5c0-1.9,1.4-3.9,3.9-3.9c2.4,0,3.9,2,3.9,3.9c0,1.9-1.4,3.9-3.9,3.9
		C47.1,29.4,45.7,27.4,45.7,25.5L45.7,25.5z M54.1,25.5L54.1,25.5c0-1.9,1.4-3.9,3.9-3.9c2.4,0,3.9,2,3.9,3.9c0,1.9-1.4,3.9-3.9,3.9
		C55.6,29.4,54.1,27.4,54.1,25.5L54.1,25.5z M35.2,27.6L35.2,27.6c-2.3-2.3-2.2-6.1,0.1-8.6c1.2-1.2,2.7-1.8,4.3-1.8
		c1.5,0,3,0.6,4.1,1.7l-1.1,1.2c-1.7-1.7-4.4-1.6-6,0.1c-1.7,1.8-1.7,4.5,0,6.2s4.5,1.9,6.1,0.1c0.6-0.6,0.7-1.3,0.8-2h-3.9v-1.7
		h5.5c0.1,0.4,0.1,0.8,0.1,1.3c0,1.4-0.6,2.8-1.5,3.7c-1,1-2.5,1.6-4,1.6C38.1,29.3,36.4,28.8,35.2,27.6L35.2,27.6z M74.5,28.2
		L74.5,28.2c-1.4-1.5-1.4-4,0-5.6c1.4-1.5,3.7-1.5,5,0c0.5,0.5,0.7,1.1,1,1.8l-5.1,2.1c0.3,0.7,0.9,1.2,1.9,1.2c0.8,0,1.4-0.3,2-1.1
		l1.4,0.9l0,0c-0.2,0.2-0.4,0.4-0.5,0.6C78.6,29.7,75.9,29.7,74.5,28.2L74.5,28.2z M84.2,29.3L84.2,29.3V19h3.4c2,0,3.5,1.4,3.5,3.1
		s-1.4,3.1-3.2,3.1h-2v4.1L84.2,29.3L84.2,29.3z M92,29.3L92,29.3V19h1.6v10.3H92L92,29.3z M71,29.1L71,29.1V17.6h1.7v11.5L71,29.1
		L71,29.1z M99.4,26.3L99.4,26.3c-0.4-0.3-0.9-0.4-1.5-0.4c-1.1,0-1.8,0.6-1.8,1.2c0,0.7,0.7,1,1.3,1C98.4,28.1,99.4,27.4,99.4,26.3
		L99.4,26.3z M51.7,25.5L51.7,25.5c0-1.1-0.7-2.3-2.1-2.3c-1.4,0-2.1,1.2-2.1,2.3c0,1.1,0.7,2.3,2.1,2.3
		C50.9,27.8,51.7,26.6,51.7,25.5L51.7,25.5z M60.1,25.5L60.1,25.5c0-1.1-0.7-2.3-2.1-2.3c-1.4,0-2.1,1.2-2.1,2.3
		c0,1.1,0.7,2.3,2.1,2.3C59.4,27.8,60.1,26.6,60.1,25.5L60.1,25.5z M68.4,26.2L68.4,26.2c0-0.1,0-0.2,0.1-0.3l0,0c0-0.1,0-0.3,0-0.4
		c0-0.1,0-0.3,0-0.4v-0.1c0-0.1-0.1-0.3-0.1-0.4c-0.3-0.9-1.1-1.6-2-1.6c-1.1,0-2,1.1-2,2.3c0,1.3,0.9,2.3,2.1,2.3
		C67.3,27.8,68,27.2,68.4,26.2L68.4,26.2z M75.2,25.3L75.2,25.3l3.4-1.5c-0.4-0.7-0.9-0.8-1.4-0.8C75.9,23.1,75,24.6,75.2,25.3
		L75.2,25.3z M89.4,22.2L89.4,22.2c0-0.9-0.7-1.6-1.8-1.6h-1.9v3.3h2C88.7,23.8,89.4,23.1,89.4,22.2z"/>
	<polygon class="st2" points="104,30.5 104,30.5 104,30.5 104,30.5 104,30.5 104,30.5 104,30.5 104,30.5 104,30.5 104,30.5 
		104,30.5 104,30.5 	"/>
	<path class="st2" d="M104,30.5L104,30.5C104,30.5,104,30.5,104,30.5L104,30.5C104,30.5,104,30.5,104,30.5L104,30.5L104,30.5
		L104,30.5L104,30.5L104,30.5L104,30.5L104,30.5L104,30.5z M104,30.5L104,30.5L104,30.5L104,30.5L104,30.5L104,30.5L104,30.5
		L104,30.5z"/>
	<polygon class="st2" points="104,30.5 104,30.5 104,30.5 104,30.5 104,30.5 104,30.5 104,30.5 104,30.5 104,30.5 104,30.5 
		104,30.5 	"/>
	<path class="st2" d="M104,30.5L104,30.5L104,30.5L104,30.5L104,30.5L104,30.5L104,30.5L104,30.5L104,30.5L104,30.5z M104,30.5
		L104,30.5L104,30.5L104,30.5L104,30.5L104,30.5L104,30.5z"/>
	<polygon class="st2" points="104,30.5 104,30.5 104,30.5 104,30.5 104,30.5 104,30.5 104,30.5 	"/>
	<polygon class="st2" points="104,30.5 104,30.5 104,30.5 104,30.5 104,30.5 104,30.5 104,30.5 104,30.5 104,30.5 104,30.5 
		104,30.5 	"/>
	<path class="st2" d="M104,30.5L104,30.5C104,30.5,104,30.5,104,30.5L104,30.5L104,30.5L104,30.5L104,30.5L104,30.5z M104,30.5
		L104,30.5L104,30.5L104,30.5L104,30.5L104,30.5C104,30.5,104,30.5,104,30.5L104,30.5z"/>
	<path class="st2" d="M104.1,30.5L104.1,30.5C104.1,30.5,104.1,30.5,104.1,30.5C104.1,30.5,104.1,30.5,104.1,30.5L104.1,30.5
		C104.1,30.5,104.1,30.5,104.1,30.5L104.1,30.5L104.1,30.5L104.1,30.5L104.1,30.5L104.1,30.5z M104.1,30.5L104.1,30.5L104.1,30.5
		L104.1,30.5L104.1,30.5L104.1,30.5L104.1,30.5L104.1,30.5L104.1,30.5z M104.1,30.5L104.1,30.5L104.1,30.5L104.1,30.5L104.1,30.5
		L104.1,30.5C104.1,30.5,104.1,30.5,104.1,30.5L104.1,30.5z"/>
	<polygon class="st2" points="104.1,30.5 104.1,30.5 104.1,30.5 104.1,30.5 104.1,30.5 104.1,30.5 104.1,30.5 104.1,30.5 
		104.1,30.5 104.1,30.5 	"/>
	<polygon class="st2" points="104.1,30.5 104.1,30.5 104.1,30.5 104.1,30.5 104.1,30.5 	"/>
	<path class="st2" d="M104.1,30.5L104.1,30.5C104.1,30.5,104.1,30.5,104.1,30.5C104.1,30.5,104.1,30.5,104.1,30.5L104.1,30.5
		L104.1,30.5L104.1,30.5L104.1,30.5z M104.1,30.5L104.1,30.5C104.1,30.5,104.1,30.5,104.1,30.5C104.1,30.5,104.1,30.5,104.1,30.5
		L104.1,30.5L104.1,30.5L104.1,30.5L104.1,30.5z"/>
	<path class="st2" d="M104.1,30.5L104.1,30.5L104.1,30.5L104.1,30.5L104.1,30.5L104.1,30.5L104.1,30.5L104.1,30.5L104.1,30.5
		C104.1,30.5,104.1,30.5,104.1,30.5C104.1,30.5,104.1,30.5,104.1,30.5L104.1,30.5C104.1,30.5,104.1,30.5,104.1,30.5
		C104.1,30.5,104.1,30.5,104.1,30.5L104.1,30.5L104.1,30.5L104.1,30.5L104.1,30.5z"/>
	<path class="st2" d="M104.2,30.5L104.2,30.5C104.2,30.5,104.2,30.5,104.2,30.5C104.1,30.5,104.1,30.5,104.2,30.5L104.2,30.5
		C104.1,30.5,104.1,30.5,104.2,30.5L104.2,30.5L104.2,30.5z M104.2,30.5L104.2,30.5C104.2,30.5,104.2,30.5,104.2,30.5
		C104.2,30.5,104.1,30.5,104.2,30.5L104.2,30.5C104.1,30.5,104.2,30.5,104.2,30.5L104.2,30.5L104.2,30.5z"/>
	<polygon class="st2" points="104.2,30.5 104.2,30.5 104.2,30.5 104.2,30.5 104.2,30.5 104.2,30.5 104.2,30.5 104.2,30.5 
		104.2,30.5 104.2,30.5 104.2,30.5 104.2,30.5 104.2,30.5 104.2,30.5 	"/>
	<path class="st2" d="M104.2,30.5L104.2,30.5L104.2,30.5L104.2,30.5L104.2,30.5L104.2,30.5L104.2,30.5L104.2,30.5L104.2,30.5
		L104.2,30.5z M104.2,30.5L104.2,30.5L104.2,30.5L104.2,30.5L104.2,30.5L104.2,30.5L104.2,30.5z"/>
	<path class="st2" d="M104.2,30.5C104.2,30.5,104.2,30.5,104.2,30.5C104.2,30.5,104.2,30.5,104.2,30.5
		C104.2,30.5,104.2,30.5,104.2,30.5C104.2,30.5,104.2,30.5,104.2,30.5L104.2,30.5C104.2,30.5,104.2,30.5,104.2,30.5
		C104.2,30.5,104.2,30.5,104.2,30.5C104.2,30.5,104.2,30.5,104.2,30.5C104.2,30.5,104.2,30.5,104.2,30.5L104.2,30.5L104.2,30.5
		L104.2,30.5L104.2,30.5L104.2,30.5z"/>
	<polygon class="st2" points="104.3,30.5 104.2,30.5 104.2,30.5 104.3,30.5 104.3,30.5 104.3,30.5 104.3,30.5 	"/>
	<polygon class="st2" points="104.3,30.5 104.3,30.5 104.3,30.5 104.3,30.5 104.3,30.5 104.3,30.5 104.3,30.5 104.3,30.5 
		104.3,30.5 104.3,30.5 104.3,30.5 	"/>
	<path class="st2" d="M104.3,30.5L104.3,30.5C104.3,30.5,104.3,30.5,104.3,30.5L104.3,30.5C104.3,30.5,104.3,30.5,104.3,30.5
		L104.3,30.5L104.3,30.5L104.3,30.5L104.3,30.5L104.3,30.5L104.3,30.5L104.3,30.5L104.3,30.5z M104.3,30.5L104.3,30.5L104.3,30.5
		L104.3,30.5L104.3,30.5L104.3,30.5L104.3,30.5L104.3,30.5z"/>
</g>
<path class="st3" d="M57.4,33.7L57.4,33.7l2-4.7l-3.5-8.1h2l2.5,5.8l2.5-5.8h2l-5.4,12.8L57.4,33.7L57.4,33.7z M47.9,29.3L47.9,29.3
	C47.3,28.7,47,27.9,47,27c0-0.7,0.2-1.4,0.7-1.9c0.8-0.8,2-1.2,3.3-1.2c0.8,0,1.5,0.1,2.1,0.5c0-1.4-1.2-2-2.1-2
	c-0.8,0-1.7,0.5-2,1.3L47.3,23c0.4-0.8,1.3-2.4,3.7-2.4c1.2,0,2.4,0.4,3.1,1.2c0.7,0.8,0.9,1.8,0.9,3.1v5h-2V29
	c-0.2,0.4-0.7,0.6-1.1,0.8c-0.5,0.2-1.1,0.4-1.7,0.4C49.5,30.1,48.4,29.9,47.9,29.3L47.9,29.3z M33.8,16.8h4.2
	c2.5,0,4.5,1.8,4.5,3.9s-1.8,3.9-4,3.9H36v5.2h-2.1v0.1l0,0 M43.7,29.9L43.7,29.9V16.8h2v13.1H43.7L43.7,29.9z M53,26L53,26
	c-0.5-0.4-1.2-0.5-1.9-0.5c-1.4,0-2.2,0.7-2.2,1.5s0.8,1.3,1.7,1.3C51.7,28.3,53,27.4,53,26L53,26z M40.4,20.8L40.4,20.8
	c0-1.2-0.9-2-2.2-2h-2.4v4.1h2.5C39.5,22.9,40.4,22,40.4,20.8z"/>
<polygon class="st3" points="58.9,31.4 58.9,31.4 58.8,31.4 58.8,31.4 58.8,31.3 58.8,31.3 58.9,31.3 58.9,31.3 58.8,31.3 
	58.8,31.3 58.8,31.4 58.8,31.4 "/>
<path class="st3" d="M58.9,31.4L58.9,31.4C58.9,31.3,58.9,31.3,58.9,31.4L58.9,31.4C58.9,31.3,58.9,31.3,58.9,31.4L58.9,31.4
	L58.9,31.4L58.9,31.4L58.9,31.4L58.9,31.4L58.9,31.4L58.9,31.4L58.9,31.4z M58.9,31.3L58.9,31.3L58.9,31.3L58.9,31.3L58.9,31.3
	L58.9,31.3L58.9,31.3L58.9,31.3z"/>
<polygon class="st3" points="58.9,31.4 58.9,31.4 58.9,31.3 58.9,31.3 58.9,31.3 58.9,31.3 58.9,31.3 58.9,31.3 58.9,31.3 
	58.9,31.3 58.9,31.4 "/>
<path class="st3" d="M58.9,31.4L58.9,31.4L58.9,31.4L58.9,31.4L58.9,31.4L58.9,31.4L58.9,31.4L58.9,31.4L58.9,31.4L58.9,31.4z
	 M58.9,31.3L58.9,31.3L58.9,31.3L58.9,31.3L58.9,31.3L58.9,31.3L58.9,31.3z"/>
<polygon class="st3" points="58.9,31.3 58.9,31.3 58.9,31.3 58.9,31.3 58.9,31.4 58.9,31.4 58.9,31.3 "/>
<polygon class="st3" points="58.9,31.4 58.9,31.4 58.9,31.3 58.9,31.3 58.9,31.3 58.9,31.3 58.9,31.3 58.9,31.3 58.9,31.3 
	58.9,31.3 58.9,31.4 "/>
<path class="st3" d="M58.9,31.4L58.9,31.4C58.9,31.3,58.9,31.3,58.9,31.4L58.9,31.4L58.9,31.4L58.9,31.4L58.9,31.4L58.9,31.4z
	 M58.9,31.4L58.9,31.4L58.9,31.4L58.9,31.4L58.9,31.4L58.9,31.4C58.9,31.3,58.9,31.3,58.9,31.4L58.9,31.4z"/>
<path class="st3" d="M59.1,31.4L59.1,31.4C59.1,31.3,59.1,31.3,59.1,31.4C59.1,31.3,59.1,31.3,59.1,31.4L59.1,31.4
	C59.1,31.3,59.1,31.3,59.1,31.4L59.1,31.4L59.1,31.4L59.1,31.4L59.1,31.4L59.1,31.4z M59.1,31.3L59.1,31.3L59.1,31.3L59.1,31.3
	L59.1,31.3L59.1,31.3L59.1,31.3L59.1,31.3L59.1,31.3z M59.1,31.4L59.1,31.4L59.1,31.4L59.1,31.4L59.1,31.4L59.1,31.4
	C59.1,31.3,59.1,31.3,59.1,31.4L59.1,31.4z"/>
<polygon class="st3" points="59.1,31.3 59.1,31.3 59.1,31.3 59.1,31.3 59.1,31.3 59.1,31.3 59.1,31.3 59.1,31.3 59.1,31.4 
	59.1,31.4 "/>
<polygon class="st3" points="59.1,31.4 59.1,31.4 59.1,31.3 59.1,31.3 59.1,31.4 "/>
<path class="st3" d="M59.1,31.4L59.1,31.4C59.1,31.3,59.1,31.3,59.1,31.4C59.1,31.3,59.1,31.3,59.1,31.4L59.1,31.4L59.1,31.4
	L59.1,31.4L59.1,31.4z M59.1,31.3L59.1,31.3C59.1,31.4,59.1,31.4,59.1,31.3C59.1,31.4,59.1,31.4,59.1,31.3L59.1,31.3L59.1,31.3
	L59.1,31.3L59.1,31.3z"/>
<path class="st3" d="M59.1,31.4L59.1,31.4L59.1,31.4L59.1,31.4L59.1,31.4L59.1,31.4L59.1,31.4L59.1,31.4L59.1,31.4
	C59.1,31.3,59.1,31.3,59.1,31.4C59.1,31.3,59.1,31.3,59.1,31.4L59.1,31.4C59.1,31.3,59.1,31.3,59.1,31.4
	C59.1,31.3,59.1,31.3,59.1,31.4L59.1,31.4L59.1,31.4L59.1,31.4L59.1,31.4z"/>
<path class="st3" d="M59.2,31.4L59.2,31.4C59.2,31.3,59.2,31.3,59.2,31.4C59.1,31.3,59.1,31.3,59.2,31.4L59.2,31.4
	C59.1,31.4,59.1,31.4,59.2,31.4L59.2,31.4L59.2,31.4z M59.2,31.3L59.2,31.3C59.2,31.4,59.2,31.4,59.2,31.3
	C59.2,31.4,59.1,31.4,59.2,31.3L59.2,31.3C59.1,31.3,59.2,31.3,59.2,31.3L59.2,31.3L59.2,31.3z"/>
<polygon class="st3" points="59.2,31.4 59.2,31.3 59.2,31.3 59.2,31.3 59.2,31.3 59.2,31.3 59.2,31.4 59.2,31.4 59.2,31.3 
	59.2,31.3 59.2,31.4 59.2,31.4 59.2,31.3 59.2,31.3 "/>
<path class="st3" d="M59.2,31.4L59.2,31.4L59.2,31.4L59.2,31.4L59.2,31.4L59.2,31.4L59.2,31.4L59.2,31.4L59.2,31.4L59.2,31.4z
	 M59.2,31.3L59.2,31.3L59.2,31.3L59.2,31.3L59.2,31.3L59.2,31.3L59.2,31.3z"/>
<path class="st3" d="M59.2,31.4C59.2,31.3,59.2,31.3,59.2,31.4C59.2,31.3,59.2,31.3,59.2,31.4C59.2,31.3,59.2,31.3,59.2,31.4
	C59.2,31.3,59.2,31.3,59.2,31.4L59.2,31.4C59.2,31.3,59.2,31.3,59.2,31.4C59.2,31.3,59.2,31.3,59.2,31.4
	C59.2,31.3,59.2,31.3,59.2,31.4C59.2,31.3,59.2,31.3,59.2,31.4L59.2,31.4L59.2,31.4L59.2,31.4L59.2,31.4L59.2,31.4z"/>
<polygon class="st3" points="59.3,31.3 59.2,31.3 59.2,31.3 59.3,31.3 59.3,31.4 59.3,31.4 59.3,31.3 "/>
<polygon class="st3" points="59.3,31.4 59.3,31.4 59.3,31.3 59.3,31.3 59.3,31.3 59.3,31.3 59.3,31.3 59.3,31.3 59.3,31.3 
	59.3,31.3 59.3,31.4 "/>
<path class="st3" d="M59.3,31.4L59.3,31.4C59.3,31.3,59.3,31.3,59.3,31.4L59.3,31.4C59.3,31.3,59.3,31.3,59.3,31.4L59.3,31.4
	L59.3,31.4L59.3,31.4L59.3,31.4L59.3,31.4L59.3,31.4L59.3,31.4L59.3,31.4z M59.3,31.3L59.3,31.3L59.3,31.3L59.3,31.3L59.3,31.3
	L59.3,31.3L59.3,31.3L59.3,31.3z"/>
</svg>
